<svg width="50" height="50" viewBox="0 0 50 50" fill="none" xmlns="http://www.w3.org/2000/svg">
<path d="M45.8307 33.7266C45.8307 41.3099 41.3099 45.8307 33.7266 45.8307H31.2474C30.1016 45.8307 29.1641 44.8932 29.1641 43.7474V31.7266C29.1641 31.1641 29.6224 30.6849 30.1849 30.6849L33.8516 30.6224C34.1432 30.6016 34.3932 30.3932 34.4557 30.1016L35.1849 26.1224C35.1991 26.0322 35.1935 25.94 35.1686 25.8522C35.1437 25.7644 35.1 25.683 35.0406 25.6137C34.9812 25.5444 34.9074 25.4887 34.8244 25.4507C34.7414 25.4126 34.6512 25.393 34.5599 25.3932L30.1224 25.4557C29.5391 25.4557 29.0807 24.9974 29.0599 24.4349L28.9766 19.3307C28.9766 18.9974 29.2474 18.7057 29.6016 18.7057L34.6016 18.6224C34.9557 18.6224 35.2266 18.3516 35.2266 17.9974L35.1432 12.9974C35.1432 12.6432 34.8724 12.3724 34.5182 12.3724L28.8932 12.4557C28.0721 12.4682 27.2615 12.6426 26.5079 12.9689C25.7543 13.2952 25.0725 13.767 24.5016 14.3573C23.9306 14.9476 23.4818 15.6447 23.1808 16.4088C22.8798 17.1729 22.7325 17.9888 22.7474 18.8099L22.8516 24.5391C22.8724 25.1224 22.4141 25.5807 21.8307 25.6016L19.3307 25.6432C18.9766 25.6432 18.7057 25.9141 18.7057 26.2682L18.7682 30.2266C18.7682 30.5807 19.0391 30.8516 19.3932 30.8516L21.8932 30.8099C22.4766 30.8099 22.9349 31.2682 22.9557 31.8307L23.1432 43.7057C23.1641 44.8724 22.2266 45.8307 21.0599 45.8307H16.2682C8.6849 45.8307 4.16406 41.3099 4.16406 33.7057V16.2682C4.16406 8.6849 8.6849 4.16406 16.2682 4.16406H33.7266C41.3099 4.16406 45.8307 8.6849 45.8307 16.2682V33.7266Z" fill="#49A37B"/>
</svg>
