<svg width="34" height="28" viewBox="0 0 34 28" fill="none" xmlns="http://www.w3.org/2000/svg">
<path fill-rule="evenodd" clip-rule="evenodd" d="M31.5859 0.585938H2.41927C1.26868 0.585938 0.335938 1.44406 0.335938 2.5026C0.335938 3.56115 1.26868 4.41927 2.41927 4.41927H31.5859C32.7365 4.41927 33.6693 3.56115 33.6693 2.5026C33.6693 1.44406 32.7365 0.585938 31.5859 0.585938ZM31.5859 12.0859H2.41927C1.26868 12.0859 0.335938 12.9441 0.335938 14.0026C0.335938 15.0611 1.26868 15.9193 2.41927 15.9193H31.5859C32.7365 15.9193 33.6693 15.0611 33.6693 14.0026C33.6693 12.9441 32.7365 12.0859 31.5859 12.0859ZM2.41927 23.5859H31.5859C32.7365 23.5859 33.6693 24.4441 33.6693 25.5026C33.6693 26.5611 32.7365 27.4193 31.5859 27.4193H2.41927C1.26868 27.4193 0.335938 26.5611 0.335938 25.5026C0.335938 24.4441 1.26868 23.5859 2.41927 23.5859Z" fill="#373867"/>
</svg>
