<svg width="50" height="50" viewBox="0 0 50 50" fill="none" xmlns="http://www.w3.org/2000/svg">
<path d="M45.7941 23.7692C45.0857 11.6858 34.1066 2.37333 21.4607 4.45667C12.7524 5.89417 5.77324 12.9567 4.41907 21.665C3.62741 26.7067 4.66907 31.4775 6.93991 35.415L5.08574 42.3108C4.66907 43.8733 6.10657 45.29 7.64824 44.8525L14.4399 42.9775C17.5232 44.79 21.1274 45.8317 24.9816 45.8317C36.7316 45.8317 46.4816 35.4775 45.7941 23.7692ZM35.1691 32.7483C34.6666 33.779 33.8082 34.593 32.7524 35.04C32.1274 35.3108 31.4399 35.4358 30.7107 35.4358C29.6482 35.4358 28.5024 35.1858 27.3149 34.665C26.0493 34.1093 24.8478 33.4177 23.7316 32.6025C22.5232 31.7275 21.3982 30.7483 20.3149 29.6858C19.2316 28.6025 18.2732 27.4567 17.3982 26.2692C16.5441 25.0817 15.8566 23.8942 15.3566 22.7067C14.8566 21.5192 14.6066 20.3733 14.6066 19.29C14.6066 18.5817 14.7316 17.8942 14.9816 17.2692C15.2316 16.6233 15.6274 16.04 16.1899 15.5192C16.8566 14.8525 17.5857 14.54 18.3566 14.54C18.6482 14.54 18.9399 14.6025 19.2107 14.7275C19.4816 14.8525 19.7316 15.04 19.9191 15.3108L22.3357 18.7275C22.5232 18.9983 22.6691 19.2275 22.7524 19.4567C22.8566 19.6858 22.8982 19.8942 22.8982 20.1025C22.8982 20.3525 22.8149 20.6025 22.6691 20.8525C22.5232 21.1025 22.3357 21.3525 22.0857 21.6025L21.2941 22.4358C21.1691 22.5608 21.1274 22.6858 21.1274 22.8525C21.1274 22.9358 21.1482 23.0192 21.1691 23.1025C21.2107 23.1858 21.2316 23.2483 21.2524 23.3108C21.4399 23.665 21.7732 24.1025 22.2316 24.6442C23.207 25.7903 24.2729 26.8563 25.4191 27.8317C25.9607 28.29 26.4191 28.6025 26.7732 28.79C26.8357 28.8108 26.8982 28.8525 26.9607 28.8733C27.0441 28.915 27.1274 28.915 27.2316 28.915C27.4191 28.915 27.5441 28.8525 27.6691 28.7275L28.4607 27.9358C28.7316 27.665 28.9816 27.4775 29.2107 27.3525C29.4607 27.2067 29.6899 27.1233 29.9607 27.1233C30.1691 27.1233 30.3774 27.165 30.6066 27.2692C30.8357 27.3733 31.0857 27.4983 31.3357 27.6858L34.7941 30.1442C35.0649 30.3317 35.2524 30.5608 35.3774 30.8108C35.4816 31.0817 35.5441 31.3317 35.5441 31.6233C35.4191 31.9775 35.3357 32.3733 35.1691 32.7483Z" fill="#49A37B"/>
</svg>
